<svg width="1091" height="191" viewBox="0 0 1091 191" fill="none" xmlns="http://www.w3.org/2000/svg">
<path d="M154.53 107.01C95.52 107.01 47.52 59 47.52 0H71.47C71.47 45.8 108.73 83.06 154.53 83.06C200.33 83.06 237.59 45.8 237.59 0H261.54C261.54 59 213.54 107.01 154.53 107.01Z" fill="url(#paint0_linear_5_112)"/>
<path d="M261.54 190.08H237.59C237.59 171.19 231.24 153.7 220.48 139.71C215.23 132.75 208.85 126.71 201.66 121.77C188.28 112.46 172.05 107.02 154.52 107.02C136.99 107.02 120.76 112.46 107.38 121.77C100.2 126.71 93.81 132.76 88.56 139.71C77.8 153.7 71.45 171.19 71.45 190.08H47.52C47.52 166.85 54.97 145.3 67.67 127.74C72.35 121.16 77.82 115.12 83.9 109.8C90.4 104.02 97.62 99.08 105.42 95.05C120.13 87.41 136.82 83.08 154.54 83.08C172.25 83.08 188.94 87.41 203.66 95.05C211.45 99.08 218.68 104.02 225.18 109.8C231.26 115.12 236.74 121.17 241.41 127.74C254.09 145.29 261.54 166.85 261.54 190.08Z" fill="url(#paint1_linear_5_112)"/>
<path d="M309.06 0C309.06 53.03 282.22 99.9 241.39 127.73C234.78 132.25 227.78 136.28 220.48 139.7C212.99 143.27 205.16 146.24 197.1 148.6C183.57 152.44 169.27 154.53 154.52 154.53C139.77 154.53 125.48 152.44 111.94 148.6C103.88 146.24 96.05 143.28 88.56 139.7C81.26 136.28 74.27 132.25 67.65 127.73C26.84 99.9 0 53.03 0 0H23.95C23.95 46 47.86 86.52 83.9 109.79C91.24 114.54 99.11 118.57 107.39 121.76C122.03 127.46 137.92 130.58 154.53 130.58C171.14 130.58 187.03 127.46 201.67 121.76C209.96 118.57 217.83 114.54 225.16 109.79C261.2 86.52 285.11 46 285.11 0H309.06Z" fill="url(#paint2_linear_5_112)"/>
<path d="M214.02 190.08H190.07C190.07 170.48 174.13 154.54 154.53 154.54C134.93 154.54 118.99 170.49 118.99 190.08H95.04C95.04 157.27 121.73 130.59 154.53 130.59C187.33 130.58 214.02 157.27 214.02 190.08Z" fill="url(#paint3_linear_5_112)"/>
<path d="M396.23 124.04H404.95V189.69H397.92L364.16 140.64V189.69H355.44V124.04H362.19L396.24 173.34V124.04H396.23Z" fill="#836BF7"/>
<path d="M423.9 169.99C424.71 174.18 426.63 177.43 429.67 179.74C432.7 182.05 436.44 183.21 440.88 183.21C447.07 183.21 451.57 180.93 454.39 176.36L461.33 180.3C456.77 187.37 449.89 190.9 440.7 190.9C433.26 190.9 427.21 188.57 422.55 183.91C417.89 179.25 415.56 173.36 415.56 166.23C415.56 159.17 417.84 153.29 422.41 148.6C426.97 143.91 432.88 141.57 440.14 141.57C447.02 141.57 452.63 143.99 456.97 148.84C461.32 153.69 463.49 159.52 463.49 166.33C463.49 167.52 463.4 168.74 463.21 169.99H423.9ZM440.12 149.27C435.74 149.27 432.12 150.51 429.24 152.98C426.36 155.45 424.58 158.75 423.89 162.87H455.22C454.53 158.43 452.78 155.05 449.97 152.74C447.15 150.42 443.87 149.27 440.12 149.27Z" fill="#836BF7"/>
<path d="M496.95 150.67H484.48V176.09C484.48 178.4 484.93 180.05 485.84 181.01C486.74 181.98 488.14 182.48 490.01 182.51C491.89 182.54 494.2 182.5 496.95 182.37V189.69C489.82 190.63 484.6 190.05 481.29 187.95C477.98 185.86 476.32 181.9 476.32 176.09V150.67H467.03V142.79H476.32V132.1L484.48 129.66V142.79H496.95V150.67Z" fill="#836BF7"/>
<path d="M562.14 142.79H569.8L556.14 189.68H547.79L536.6 154.51L525.48 189.68H516.75L502.95 142.79H511.49L521.8 178.43L532.87 142.79H540.92L551.96 178.44L562.14 142.79Z" fill="#836BF7"/>
<path d="M616.81 183.78C612 188.53 606.15 190.91 599.27 190.91C592.39 190.91 586.56 188.53 581.78 183.78C577 179.03 574.6 173.18 574.6 166.24C574.6 159.3 576.99 153.45 581.78 148.7C586.56 143.95 592.39 141.57 599.27 141.57C606.15 141.57 611.99 143.95 616.81 148.7C621.62 153.45 624.03 159.3 624.03 166.24C624.03 173.18 621.63 179.03 616.81 183.78ZM599.28 182.93C603.97 182.93 607.91 181.34 611.1 178.15C614.29 174.96 615.88 170.99 615.88 166.24C615.88 161.49 614.29 157.52 611.1 154.33C607.91 151.14 603.97 149.55 599.28 149.55C594.65 149.55 590.74 151.14 587.56 154.33C584.37 157.52 582.78 161.49 582.78 166.24C582.78 170.99 584.37 174.96 587.56 178.15C590.74 181.34 594.65 182.93 599.28 182.93Z" fill="#836BF7"/>
<path d="M641.85 150.67C644.54 144.85 649.41 141.95 656.48 141.95V150.48C652.48 150.29 649.04 151.36 646.16 153.67C643.29 155.98 641.85 159.7 641.85 164.83V189.68H633.69V142.79H641.85V150.67Z" fill="#836BF7"/>
<path d="M704.13 189.69H694L672.62 167.49V189.69H664.46V124.04H672.62V163.44L692.88 142.8H703.38L680.97 165.5L704.13 189.69Z" fill="#836BF7"/>
<path d="M715.2 155.32C715.2 157.09 716.12 158.51 717.96 159.58C719.8 160.65 721.99 161.56 724.54 162.31C727.09 163.06 729.65 163.81 732.23 164.57C734.81 165.33 736.99 166.75 738.78 168.83C740.57 170.91 741.46 173.58 741.46 176.85C741.46 181.1 739.82 184.51 736.54 187.07C733.26 189.63 729.05 190.92 723.93 190.92C719.37 190.92 715.46 189.92 712.21 187.92C708.96 185.92 706.64 183.26 705.27 179.95L712.3 175.92C713.05 178.17 714.46 179.95 716.52 181.27C718.58 182.58 721.05 183.24 723.93 183.24C726.62 183.24 728.84 182.72 730.59 181.7C732.34 180.67 733.22 179.06 733.22 176.88C733.22 175.07 732.31 173.62 730.5 172.53C728.68 171.44 726.5 170.51 723.95 169.74C721.4 168.98 718.84 168.21 716.26 167.43C713.68 166.66 711.49 165.27 709.68 163.27C707.87 161.27 706.96 158.71 706.96 155.58C706.96 151.52 708.54 148.17 711.7 145.54C714.86 142.91 718.81 141.6 723.56 141.6C727.37 141.6 730.77 142.46 733.74 144.18C736.71 145.9 738.94 148.29 740.44 151.36L733.59 155.2C731.9 151.2 728.56 149.2 723.55 149.2C721.24 149.2 719.27 149.73 717.64 150.8C716.01 151.85 715.2 153.36 715.2 155.32Z" fill="#836BF7"/>
<path d="M385.87 86.53L356.82 0H374.52L396.29 68.45L417.89 0H435.71L406.54 86.53H385.87Z" fill="white"/>
<path d="M459.91 88.29C451.76 88.29 444.66 85.12 438.83 78.88C432.99 72.63 430.02 64.85 430.02 55.77C430.02 46.69 432.98 38.92 438.83 32.66C444.66 26.42 451.76 23.25 459.91 23.25C468.46 23.25 475.19 26.26 479.9 32.19L480.79 33.31V25H495.92V86.52H480.8V78.21L479.91 79.33C475.19 85.28 468.47 88.29 459.91 88.29ZM462.92 37.64C457.8 37.64 453.52 39.35 450.18 42.73C446.85 46.11 445.16 50.49 445.16 55.77C445.16 61.05 446.85 65.44 450.18 68.81C453.51 72.19 457.8 73.9 462.92 73.9C468.04 73.9 472.34 72.19 475.72 68.81C479.1 65.43 480.81 61.05 480.81 55.76C480.81 50.48 479.1 46.09 475.72 42.71C472.33 39.35 468.03 37.64 462.92 37.64Z" fill="white"/>
<path d="M534.44 88.29C526.28 88.29 519.19 85.12 513.36 78.88C507.52 72.63 504.55 64.85 504.55 55.77C504.55 46.69 507.51 38.92 513.36 32.66C519.19 26.42 526.29 23.25 534.44 23.25C542.99 23.25 549.72 26.26 554.43 32.19L555.32 33.31V25H570.45V86.52H555.32V78.21L554.43 79.33C549.72 85.28 543 88.29 534.44 88.29ZM537.44 37.64C532.32 37.64 528.04 39.35 524.7 42.73C521.37 46.11 519.68 50.49 519.68 55.77C519.68 61.05 521.37 65.44 524.7 68.81C528.03 72.19 532.32 73.9 537.44 73.9C542.56 73.9 546.86 72.19 550.24 68.81C553.62 65.43 555.33 61.05 555.33 55.76C555.33 50.48 553.62 46.09 550.24 42.71C546.86 39.35 542.56 37.64 537.44 37.64Z" fill="white"/>
<path d="M627.1 50.65C627.1 46.36 625.91 43.02 623.57 40.73C621.23 38.44 618.08 37.27 614.22 37.27C609.93 37.27 606.44 38.63 603.86 41.3C601.28 43.97 599.97 48 599.97 53.28V86.54H584.84V25.01H599.97V33.15L600.89 31.79C604.69 26.13 610.82 23.26 619.11 23.26C625.77 23.26 631.35 25.52 635.7 29.99C640.04 34.46 642.25 40.74 642.25 48.65V86.54H627.1V50.65Z" fill="white"/>
<path d="M745.02 86.53V28.48L719.55 70.38L718.1 70.43L692.75 28.69V86.53H676.5V0H693.47L718.85 41.8L744.11 0H761.16V86.53H745.02Z" fill="white"/>
<path d="M804.42 88.29C794.27 88.29 786.01 85.18 779.89 79.06C773.77 72.94 770.66 65.1 770.66 55.78C770.66 46.54 773.73 38.73 779.77 32.56C785.81 26.39 793.69 23.27 803.17 23.27C812.15 23.27 819.67 26.41 825.5 32.62C831.34 38.83 834.31 46.63 834.31 55.79C834.31 57.71 834.13 59.77 833.76 61.92H786.38L786.56 62.55C788.78 70.59 794.88 74.67 804.67 74.67C810.8 74.67 815.55 72.62 818.8 68.57L830.95 75.58C824.92 84.01 816 88.29 804.42 88.29ZM803.17 36.77C798.74 36.77 795.02 37.92 792.11 40.19C789.2 42.46 787.24 45.69 786.3 49.79L786.16 50.4H819.29L819.16 49.79C818.22 45.43 816.24 42.14 813.28 39.99C810.33 37.85 806.93 36.77 803.17 36.77Z" fill="white"/>
<path d="M875.32 113.3C868.68 113.3 862.76 112.01 857.73 109.48C852.87 107.03 849.05 103.42 846.37 98.73L859.26 91.35C862.54 97.04 868.12 99.92 875.83 99.92C881.02 99.92 885.17 98.53 888.17 95.79C891.18 93.03 892.71 89.08 892.71 84.04V75.79L891.81 76.99C887.18 83.16 880.58 86.29 872.2 86.29C863.54 86.29 856.2 83.21 850.36 77.13C844.52 71.05 841.56 63.53 841.56 54.78C841.56 46.12 844.54 38.62 850.42 32.49C856.3 26.37 863.62 23.26 872.19 23.26C880.57 23.26 887.17 26.39 891.8 32.56L892.7 33.76V25.01H907.46V84.03C907.46 93.5 904.3 100.81 898.08 105.77C891.83 110.77 884.17 113.3 875.32 113.3ZM874.7 37.27C869.5 37.27 865.16 38.94 861.78 42.23C858.4 45.52 856.69 49.74 856.69 54.78C856.69 59.9 858.4 64.17 861.78 67.46C865.15 70.75 869.5 72.42 874.7 72.42C879.9 72.42 884.24 70.75 887.62 67.46C891 64.17 892.71 59.9 892.71 54.79C892.71 49.76 891 45.53 887.62 42.24C884.24 38.93 879.89 37.27 874.7 37.27Z" fill="white"/>
<path d="M948.48 88.29C940.32 88.29 933.23 85.12 927.4 78.88C921.56 72.63 918.59 64.85 918.59 55.77C918.59 46.69 921.55 38.92 927.4 32.66C933.23 26.42 940.32 23.25 948.48 23.25C957.03 23.25 963.76 26.26 968.47 32.19L969.36 33.31V25H984.49V86.52H969.36V78.21L968.47 79.33C963.76 85.28 957.03 88.29 948.48 88.29ZM951.48 37.64C946.36 37.64 942.08 39.35 938.74 42.73C935.41 46.11 933.72 50.49 933.72 55.77C933.72 61.05 935.41 65.44 938.74 68.81C942.07 72.19 946.36 73.9 951.48 73.9C956.6 73.9 960.9 72.19 964.28 68.81C967.66 65.43 969.37 61.05 969.37 55.76C969.37 50.48 967.66 46.09 964.28 42.71C960.9 39.35 956.59 37.64 951.48 37.64Z" fill="white"/>
<path d="M1075.53 86.53V49.65C1075.53 45.79 1074.56 42.74 1072.65 40.57C1070.72 38.38 1067.99 37.27 1064.52 37.27C1060.72 37.27 1057.7 38.55 1055.57 41.07C1053.46 43.57 1052.39 47.21 1052.39 51.9V86.54H1037.26V49.65C1037.26 45.79 1036.29 42.74 1034.39 40.57C1032.46 38.38 1029.73 37.27 1026.26 37.27C1022.54 37.27 1019.53 38.55 1017.32 41.07C1015.12 43.57 1014.01 47.22 1014.01 51.9V86.54H998.88V25.01H1014V32.78L1014.92 31.42C1018.56 26.01 1024.27 23.26 1031.89 23.26C1039.34 23.26 1044.91 26.21 1048.47 32.02L1048.87 32.67L1049.31 32.04C1053.36 26.21 1059.49 23.25 1067.53 23.25C1074.52 23.25 1080.18 25.55 1084.36 30.09C1088.55 34.64 1090.67 40.84 1090.67 48.51V86.53H1075.53Z" fill="white"/>
<defs>
<linearGradient id="paint0_linear_5_112" x1="545.34" y1="-64.0705" x2="545.34" y2="262.186" gradientUnits="userSpaceOnUse">
<stop stop-color="#AD83FF"/>
<stop offset="1" stop-color="#5854EF"/>
</linearGradient>
<linearGradient id="paint1_linear_5_112" x1="545.343" y1="-49.2558" x2="545.343" y2="250.302" gradientUnits="userSpaceOnUse">
<stop offset="1.38522e-07" stop-color="#7ADBE5"/>
<stop offset="1" stop-color="#15A6FF"/>
</linearGradient>
<linearGradient id="paint2_linear_5_112" x1="545.34" y1="-41.9657" x2="545.34" y2="223.144" gradientUnits="userSpaceOnUse">
<stop stop-color="#AD83FF"/>
<stop offset="1" stop-color="#5854EF"/>
</linearGradient>
<linearGradient id="paint3_linear_5_112" x1="545.341" y1="-70.503" x2="545.341" y2="298.137" gradientUnits="userSpaceOnUse">
<stop offset="1.38522e-07" stop-color="#7ADBE5"/>
<stop offset="1" stop-color="#15A6FF"/>
</linearGradient>
</defs>
</svg>
